/* XPM */
static char *_541112968593[] = {
/* columns rows colors chars-per-pixel */
"32 32 184 2 ",
"   c #000000",
".  c #02070A",
"X  c #060909",
"o  c #0D0C0C",
"O  c #110F0E",
"+  c #070D11",
"@  c #0F1314",
"#  c #141413",
"$  c #181616",
"%  c #1A1817",
"&  c #161C1D",
"*  c #1D1B1B",
"=  c #201E1E",
"-  c #22201F",
";  c #131C22",
":  c #1F1F21",
">  c #1B2224",
",  c #242324",
"<  c #282827",
"1  c #242629",
"2  c #282728",
"3  c #242A2D",
"4  c #2C2C2C",
"5  c #302F2F",
"6  c #31312F",
"7  c #252E32",
"8  c #2C2E32",
"9  c #263036",
"0  c #2D3134",
"q  c #2C3639",
"w  c #2E393A",
"e  c #333333",
"r  c #393837",
"t  c #33353A",
"y  c #36383C",
"u  c #3A3B3C",
"i  c #303645",
"p  c #363941",
"a  c #3B3D43",
"s  c #3C3F49",
"d  c #3D4245",
"f  c #3D4149",
"g  c #3F4A4D",
"h  c #3D4B51",
"j  c #3D4B68",
"k  c #3F5275",
"l  c #434344",
"z  c #42444A",
"x  c #47494D",
"c  c #4A4A48",
"v  c #434652",
"b  c #444C53",
"n  c #4B4D55",
"m  c #424A5C",
"M  c #4E5154",
"N  c #4C5259",
"B  c #4D5B5D",
"V  c #515455",
"C  c #51545C",
"Z  c #545A5B",
"A  c #5B5B5F",
"S  c #444D62",
"D  c #484F62",
"F  c #44516C",
"G  c #4B596B",
"H  c #565A61",
"J  c #585B62",
"K  c #545A6B",
"L  c #5B5F69",
"P  c #445571",
"I  c #455877",
"U  c #46597E",
"Y  c #48597A",
"T  c #535D74",
"R  c #516465",
"E  c #556769",
"W  c #5D616A",
"Q  c #576869",
"!  c #5D6A6C",
"~  c #5E6472",
"^  c #5D6C71",
"/  c #65676A",
"(  c #61656E",
")  c #616372",
"_  c #656974",
"`  c #696D76",
"'  c #656A79",
"]  c #6B6E7C",
"[  c #6D727C",
"{  c #647A7C",
"}  c #71757E",
"|  c #727D7D",
" . c #787D7E",
".. c #576780",
"X. c #5A6781",
"o. c #506981",
"O. c #526E8D",
"+. c #496597",
"@. c #4D6A96",
"#. c #566E99",
"$. c #5C739E",
"%. c #676F81",
"&. c #6F7480",
"*. c #647B81",
"=. c #6F7F84",
"-. c #727682",
";. c #757A85",
":. c #797E85",
">. c #707688",
",. c #747A88",
"<. c #797E89",
"1. c #6C7790",
"2. c #60769D",
"3. c #707B93",
"4. c #5472A4",
"5. c #567BAC",
"6. c #5D7EB6",
"7. c #678182",
"8. c #728384",
"9. c #758489",
"0. c #7C838B",
"q. c #7B8B8F",
"w. c #7D8390",
"e. c #7C8C92",
"r. c #7F9396",
"t. c #7E9A9A",
"y. c #6182A3",
"u. c #4F92C5",
"i. c #6288C6",
"p. c #658FD0",
"a. c #6690D1",
"s. c #6995D8",
"d. c #71A0D8",
"f. c #6AB6D9",
"g. c #81888B",
"h. c #828A92",
"j. c #858A96",
"k. c #849196",
"l. c #83949A",
"z. c #8A949A",
"x. c #849B9D",
"c. c #899F9F",
"v. c #959595",
"b. c #94949B",
"n. c #959A9E",
"m. c #818BA0",
"M. c #8894A6",
"N. c #8B9BA2",
"B. c #9196A2",
"V. c #949BA3",
"C. c #9A9EAB",
"Z. c #8C9BB5",
"A. c #89A1A4",
"S. c #93A4A6",
"D. c #93A3AB",
"F. c #9DA1AD",
"G. c #90A8AA",
"H. c #9CABB1",
"J. c #98ADB7",
"K. c #A1A6B2",
"L. c #A5ACBA",
"P. c #A9ADBD",
"I. c #A9B2B7",
"U. c #AAB5BE",
"Y. c #A0B8BA",
"T. c #84B5CA",
"R. c #96B9C7",
"E. c #A8B5C6",
"W. c #B3BCC2",
"Q. c #B7BAC8",
"!. c #A4B9D1",
"~. c #B1C8CE",
"^. c #9BD6E5",
"/. c #CACBCB",
"(. c #C2CED5",
"). c #CBCED0",
"_. c #D8D6D6",
"`. c #D7DEE2",
"'. c #DCE4E8",
"]. c #E3E9ED",
"[. c #E4ECF1",
"{. c #EDF3F6",
"}. c #F2F5F7",
"|. c #FEFEFE",
/* pixels */
"|.|.].I.v.v.v.v.v.v.v.v.v.v.v.v.v.v.v.v.v.v.v.v.v.v.v.n.U.{.|.|.",
"|.D.+                                                     ; (.|.",
"'.                                                          9 |.",
"H.                    3 Q q.x.t.t.x.9.B &                     '.",
"v.                d A.S.| V a e 0 l Z 8.S.k.3                 /.",
"v.            o l.D.M * % - 2 L Z > % # % Z H.=.              /.",
"v.          > J.` % , 4 4 3 _ L ` J , < , % * 0.D.@           /.",
"v.        & E.V % e 5 5 e z >.2 t ;.t 4 4 4 4 # / D.X         /.",
"v.        D.J = 4 r e r e _ ( 0 5 ' N 2 4 5 2 , o _ e.        /.",
"v.      ^ g.= a C C x u 5 -.V r e H _ 8 p s V M 4 O z.b       /.",
"v.    # D., e -._ _ -.;.` h.z u u x 0.P @.f W ' ` > 4 S.X     /.",
"v.    ^ [ # a [ 1 p U $.1.K.-.C J <.K.v I j i 3 -.8 O 0.g     /.",
"v.    x.r , 4 ] V F a.i.T ] ] E.P.~ ] s #.d.P L L , % x 9.    /.",
"v.  & N.= 4 5 y ..#.#.Y ~ C.Z.y.2.m.V.D 4.5.X.[ 1 , , , r.    /.",
"v.  w q.= 5 e e o.y.v J B.Q.W.R.Z.V.K.j.D T <.0 2 , * # l.&   /.",
"v.  b 0.% 5 r r y s C.K.K E.!._./.Z.M.K K.B.0 4 4 , , # q.>   /.",
"v.  g 0.% 6 e r a <._ _ b.T.f._.^.u.Z.j.L ' _ 3 4 2 , $ e.>   /.",
"v.  9 j.% 6 r t <.%.P F %.E.R._.~.T.L.H s j 3._ 2 , , % k.#   /.",
"v.  @ S., 0 e _ ' Y s.6.K ,.] W.E.) &.m 6.p.k ' C : * 2 l.    /.",
"v.    k.c , f -.0 S #.U ) F.w.} ] <.V.T 4.+.i 8 &.1 @ M =.    /.",
"v.    B g.$ u <.H H _ ;.0.B.C z u n j.>.>.) N C [ , o k.q     /.",
"v.    o H.r , x _ ) Z z r ;.J c l G m y d C ( L t O l N.      /.",
"v.      b V.% 4 4 4 5 e t ] _ l u O.O.y 5 5 2 = , # D.0       /.",
"v.        e.:.# 4 4 e 5 r V ;.t r W a r 5 5 4 , # h.^         /.",
"v.        X G. .$ < 6 4 r e ;.C L ` 4 e 6 4 , # e.q.          /.",
"v.          . x.V.4 * 4 e 0 d ;.[ 0 4 6 4 % r D.*.            /.",
"v.              Q Y.| r % = - 4 , * > = r 9.J.h               /.",
"v.                # { G.c.8.! Z A ! 7.N.N.E X                 /.",
"W.                    . w R 7.7.*.{ B >                       '.",
"}.;                                   .                     h |.",
"|.(.7                                                   . N [.|.",
"|.|.|.`./././././././././././././././././././././././.).].|.|.|."
};
