/* XPM */
static char *_541112931339[] = {
/* columns rows colors chars-per-pixel */
"16 16 148 2 ",
"   c black",
".  c #010606",
"X  c #040606",
"o  c #070909",
"O  c #07090A",
"+  c #050A0B",
"@  c #0B0D0E",
"#  c #0F1314",
"$  c #0F1719",
"%  c #121719",
"&  c #131C1D",
"*  c #1E1C1A",
"=  c #201F1F",
"-  c #1B2627",
";  c #1C2727",
":  c #272423",
">  c #272627",
",  c #292727",
"<  c #212B2C",
"1  c #242C2E",
"2  c #252E2F",
"3  c #2B2929",
"4  c #2C2A2B",
"5  c #2E2C29",
"6  c #2B2C2D",
"7  c #2D2D2E",
"8  c #262E31",
"9  c #2E2F34",
"0  c #2A3534",
"q  c #2F383B",
"w  c #2F393B",
"e  c #313032",
"r  c gray20",
"t  c #333436",
"y  c #343637",
"u  c #343B3D",
"i  c #38393A",
"p  c #3E3D3C",
"a  c #343C40",
"s  c #3E3E41",
"d  c #3D3E44",
"f  c #394347",
"g  c #3D454F",
"h  c #434242",
"j  c #444343",
"k  c #444647",
"l  c #484746",
"z  c #434448",
"x  c #434649",
"c  c #444748",
"v  c #45464D",
"b  c #444B4A",
"n  c #41494D",
"m  c #424C4E",
"M  c #464C4C",
"N  c #494A4A",
"B  c #4B4A4A",
"V  c #494B4E",
"C  c gray31",
"Z  c #464A52",
"A  c #464C54",
"S  c #4F4F50",
"D  c #4D4E55",
"F  c #495051",
"G  c #485154",
"H  c #4C5155",
"J  c #4D5557",
"K  c #46505C",
"L  c #4F5459",
"P  c #4D575B",
"I  c #4F595A",
"U  c #4F595E",
"Y  c #535356",
"T  c #505555",
"R  c #52545A",
"E  c #55565B",
"W  c #50545D",
"Q  c #505A5A",
"!  c #51595E",
"~  c #58585C",
"^  c #585D5F",
"/  c #40526E",
"(  c #4C5969",
")  c #4E586D",
"_  c #535762",
"`  c #515764",
"'  c #555861",
"]  c #545862",
"[  c #5D5E62",
"{  c #595D66",
"}  c #596265",
"|  c #5A6466",
" . c #58666A",
".. c #5E676D",
"X. c #5D686A",
"o. c #5D6B6D",
"O. c #556076",
"+. c #5A6376",
"@. c #5F6776",
"#. c #50617D",
"$. c #58657B",
"%. c #676666",
"&. c #686666",
"*. c DimGray",
"=. c #6D6C6C",
"-. c #6D6D6D",
";. c #6C6D6E",
":. c #706F6F",
">. c #666B78",
",. c #646D7E",
"<. c #697074",
"1. c #6F727C",
"2. c #727171",
"3. c #727272",
"4. c #727374",
"5. c #73787B",
"6. c #5F6D89",
"7. c #4D699B",
"8. c #4D6B9E",
"9. c #516D9C",
"0. c #626B82",
"q. c #6B7384",
"w. c #6F7B8D",
"e. c #717787",
"r. c #787F83",
"t. c #737989",
"y. c #757A88",
"u. c #747C8D",
"i. c #7B8285",
"p. c #788DA0",
"a. c #868892",
"s. c #818899",
"d. c #8A8D99",
"f. c #8D9397",
"g. c #8F9598",
"h. c #828FA4",
"j. c #8495AA",
"k. c #969CA0",
"l. c #909AA9",
"z. c #9CA1A4",
"x. c #9CADBF",
"c. c #A0C2D6",
"v. c #B3C7D6",
"b. c #B6D1DE",
"n. c #EFF2F3",
"m. c #F7F8FA",
"M. c #F8FAFB",
"N. c #FCFDFE",
/* pixels */
"n.5.S C C N j j j j N C C T r.m.",
"<.        O 2 0 0 < .         f.",
"N     O P X.M L H M } G X     -.",
"C   @ ..k = e W R , * k } O   2.",
"C   ! V s p R x x Z t t c G   2.",
"l % Y v ] 6.u.~ [ ,./ ` d H @ -.",
"j a i s #.7.t.j.h.>.7.$.r y 8 &.",
"N x r 0 ( 1.l.v.x.s.e.v * 6 q *.",
"N n r t ..0.p.b.c.w.+.` > 7 q *.",
"h u p D O.9.y.d.a.q.8.) s t 2 %.",
"l # ^ s { ] 1.R A @._ _ 9 Q O ;.",
"C   J N , 5 C E K g 5 * x n   2.",
"C   X | T , 4 ] S : 3 P U     2.",
"N       m o.Q H A I  .f       -.",
"i.          & ; ; $           k.",
"M.g.2.4.2.:.*.&.&.*.2.2.2.4.z.N."
};
