/* XPM */
static char *_541112992362[] = {
/* columns rows colors chars-per-pixel */
"64 64 232 2 ",
"   c #000000",
".  c #05090B",
"X  c #0C0C0C",
"o  c #100F0E",
"O  c #11100F",
"+  c #000A13",
"@  c #061114",
"#  c #0B1314",
"$  c #141313",
"%  c #191616",
"&  c #181817",
"*  c #131B1C",
"=  c #1D1C1C",
"-  c #211E1E",
";  c #21201F",
":  c #0B1A24",
">  c #161B23",
",  c #1C1E24",
"<  c #1C2325",
"1  c #1D232B",
"2  c #182428",
"3  c #192B36",
"4  c #1E303B",
"5  c #242424",
"6  c #23252C",
"7  c #232A2C",
"8  c #2C2C2C",
"9  c #302F2F",
"0  c #30302F",
"q  c #222630",
"w  c #252A33",
"e  c #2B2D33",
"r  c #252B39",
"t  c #2A2E39",
"y  c #312F31",
"u  c #243234",
"i  c #2F3034",
"p  c #2D313C",
"a  c #333333",
"s  c #33353A",
"d  c #393738",
"f  c #37383C",
"g  c #3A3B3B",
"h  c #252E45",
"j  c #2D3444",
"k  c #283848",
"l  c #323742",
"z  c #353944",
"x  c #3B3E43",
"c  c #343B4A",
"v  c #393E4B",
"b  c #2F3A56",
"n  c #353D51",
"m  c #393F51",
"M  c #403C42",
"N  c #2F4447",
"B  c #3E4045",
"V  c #344548",
"C  c #3D424C",
"Z  c #3C4354",
"A  c #3C4B56",
"S  c #3C455C",
"D  c #3E5154",
"F  c #394A67",
"G  c #355264",
"H  c #434344",
"J  c #44464A",
"K  c #47494E",
"L  c #4B4B4B",
"P  c #514E4F",
"I  c #414753",
"U  c #454955",
"Y  c #4B4D53",
"T  c #444B5B",
"R  c #494E5B",
"E  c #425759",
"W  c #4D525D",
"Q  c #535355",
"!  c #5B5A5D",
"~  c #424C62",
"^  c #434E69",
"/  c #4D5364",
"(  c #485769",
")  c #4C546A",
"_  c #515662",
"`  c #555A66",
"'  c #5E5D61",
"]  c #545B6A",
"[  c #595E6B",
"{  c #485778",
"}  c #4C6366",
"|  c #5C626D",
" . c #56686B",
".. c #5C6373",
"X. c #556479",
"o. c #5F777A",
"O. c #66686A",
"+. c #76726E",
"@. c #616673",
"#. c #656B74",
"$. c #676B77",
"%. c #696E7B",
"&. c #6C717D",
"*. c #677A7B",
"=. c #74747A",
"-. c #747B7C",
";. c #7E7E7E",
":. c #847E77",
">. c #4A5E87",
",. c #4F6487",
"<. c #4C648A",
"1. c #556786",
"2. c #536D8F",
"3. c #546B94",
"4. c #576E9B",
"5. c #58739A",
"6. c #6C7382",
"7. c #657A84",
"8. c #6B758C",
"9. c #757984",
"0. c #757B8B",
"q. c #797E8B",
"w. c #6B7B98",
"e. c #5A77A6",
"r. c #587AB9",
"t. c #607FB0",
"y. c #587FC3",
"u. c #658186",
"i. c #6A848A",
"p. c #64888B",
"a. c #798487",
"s. c #7D828D",
"d. c #7C8896",
"f. c #789598",
"g. c #5F84BA",
"h. c #6384AC",
"j. c #7888A5",
"k. c #6382B3",
"l. c #6487B9",
"z. c #6D9EBA",
"x. c #719AB6",
"c. c #65A6BE",
"v. c #5D84C4",
"b. c #648AC3",
"n. c #668BC4",
"m. c #6B93C9",
"M. c #7197C7",
"N. c #6A9BD3",
"B. c #6FADCF",
"V. c #669FE1",
"C. c #6FB5EE",
"Z. c #66CAD5",
"A. c #6DCCF2",
"S. c #85888D",
"D. c #818691",
"F. c #858A94",
"G. c #8B8C94",
"H. c #828399",
"J. c #8A8F9A",
"K. c #88979B",
"L. c #8D929C",
"P. c #94969D",
"I. c #A19694",
"U. c #878FA4",
"Y. c #899AA7",
"T. c #9297A2",
"R. c #959AA4",
"E. c #9A9DA6",
"W. c #979DAA",
"Q. c #86A3A9",
"!. c #95A3A3",
"~. c #9DA1AB",
"^. c #8BA6B1",
"/. c #98A6B4",
"(. c #8DB6BC",
"). c #96B5B9",
"_. c #A3A5AE",
"`. c #ABACAC",
"'. c #A5AAB3",
"]. c #A3A8B6",
"[. c #AAADB6",
"{. c #AAADB9",
"}. c #A4B5B7",
"|. c #ADB1BB",
" X c #B4B7BB",
".X c #B2B5BE",
"XX c #90B3CE",
"oX c #A8B9C6",
"OX c #B3B5C1",
"+X c #B5B9C3",
"@X c #BBBDC4",
"#X c #B3BDCA",
"$X c #9EC6C9",
"%X c #A8C6CB",
"&X c #BDC2CB",
"*X c #A9CFD5",
"=X c #B8C9D4",
"-X c #B6D5D9",
";X c #8FD9E3",
":X c #86C7F7",
">X c #BBDCE3",
",X c #BBE3E5",
"<X c #BDEEF5",
"1X c #BDF2F6",
"2X c #C5C6CC",
"3X c #C5CAD2",
"4X c #C8CCD5",
"5X c #D0CFD0",
"6X c #C9D2DA",
"7X c #D7D8DB",
"8X c #C4D7E4",
"9X c #D9DCE2",
"0X c #CCDBF7",
"qX c #C7E5E9",
"wX c #D1E3EA",
"eX c #D9E6EB",
"rX c #CBEBF3",
"tX c #D1ECF5",
"yX c #C9F4F7",
"uX c #D4F1F7",
"iX c #DCF4FC",
"pX c #D6FEFE",
"aX c #DCFCFF",
"sX c #E6E7EA",
"dX c #E8F4F9",
"fX c #E3FEFF",
"gX c #EBFDFF",
"hX c #F2F1F0",
"jX c #F4F4F4",
"kX c #FBF5F3",
"lX c #F3FEFF",
"zX c #FFFFFF",
/* pixels */
"zXzXzXzXzXzXzXlXjXjXjXjXjXjXjXjXjXjXjXjXjXjXjXjXjXjXjXjXjXjXjXjXjXjXjXjXjXjXjXjXjXjXjXjXjXjXjXjXjXjXjXjXjXjXjXlXlXzXzXzXzXzXzXzX",
"zXzXzXzXdX/./ 4 $ $ $ $ $ $ $ $ $ $ $ $ $ $ $ $ $ $ $ $ $ $ $ $ $ $ $ $ $ $ $ $ $ % $ $ $ $ $ $ $ $ $ $ $ $ $ 2 h  .oXzXzXzXzXzX",
"zXzXzXoX3                                                                                                             ( gXzXzXzX",
"zXlXoX+                                                                                                                 G lXzXzX",
"zXeX:                                                                                                                     Y.zXzX",
"zXf.                                                                                                                      3 lXzX",
"zXV                                                 < N } i.p.p.p.p.i.E u @                                                 =XzX",
"lX3                                         X D f.,XpXaXpXwXqX-X-XqXyXpXaXyX$X*.1                                           Q.zX",
"jX$                                     7 f.yXfXqX!.O.H 9 5 - = = = ; 0 L =.).uXfX*X} X                                     a.zX",
"jX$                                 < Q.fXuXK.H - $ % = 5 8 8 7 8 8 8 5 - $ O ; ! `.fXrX}                                   ;.zX",
"jX$                               *.aXeX+.8 % - 5 8 5 8 8 8 6 p w 6 8 8 8 5 5 5 & $ a P.gX>XV                               ;.zX",
"jX$                           2 %XlXS.5 O < 8 ; 5 8 8 8 6 6 9.[.'.` 6 5 5 5 5 5 ; ; & o a  XlXf.                            ;.zX",
"jX$                         N uX6XH % 5 8 8 8 8 8 0 a a w s._.k R +XW 6 5 8 5 5 ; ; - ; & O O.jX*X@                         ;.zX",
"jX$                       } lX_.= & 8 8 8 0 8 8 8 8 0 e T .Xp i 6 [ [.t e 8 8 8 8 8 8 8 8 8 O g 7X6Xu                       ;.zX",
"jX$                     } lXG.% 5 8 8 8 8 a 8 8 y a a w P.&.8 0 a w ~.$.e 0 0 8 8 8 8 8 8 0 8 = ; 2XiX7                     ;.zX",
"jX$                   D lXS.% 8 0 0 a a a a a a a a g I |.v s a d p @.~.w e 8 8 8 8 8 8 8 5 ; 5 = = 2X>X#                   ;.zX",
"jX$                 w iXE.& 8 8 a a d g d g s d g g d 9.T.r g a i a z [.C 8 6 8 5 8 8 8 5 8 5 5 ; & - 7X%X                  ;.zX",
"jX$                 -X3X5 8 i a a i d f a d a d g g p W.&.d g g g f p R.&.e 8 8 8 a a e y y y 8 8 5 & d lX7.                ;.zX",
"jX$               7.dXd 5 a a a a i s g g g g g g g J {._ x M g g g s 9.T.p d s a s d d s i y e 8 8 5 X O.gXu               ;.zX",
"jX$             < fX=.% a a i l ` @.| W V z f B H z ` {.C x g d g g i _ _.l f f S Z z x W [ [ U 1 5 8 ; o  X*X              ;.zX",
"jX$             Q.6X% 6 8 8 W [.~.E.~._.'.~.s.` M j %.W.x H g g M g g K {.Z t <.<.V S ] _.E.R.'.P.t 6 5 & d gX}             ;.zX",
"jX$           2 iX! % 8 8 p '...t t t l I %.T.[.{.q.W.s.c L L J L L K z ~.s._ ,.N.4.F p t w w r L.s., , ; X R.>X            ;.zX",
"jX$           Y.6X= 8 5 8 l _.l s a d v Z F F F 1.T.7XOX@.v x J J z C 6.6X@X[ c <.<.c l l s y w ] P.< 5 5 % a fXV           ;.zX",
"jX$         . rX=.$ 5 8 8 3 ~.| t d x S 4.k.k.l.>.k W.T.'.{.%.c U F.OXT._.0.t B v F { { ^ c p 6 L.&.6 5 5 - X OX^.          ;.zX",
"jX$         A iXe = 5 8 8 i | [.p g C { g.y.N.t.>.M OX~ Z ..{.2X3XT.) n q.L.s x ^ r.l.m.t.~ p R |.p e 5 5 - o O.rX#         ;.zX",
"jX$         Q.&X$ 5 8 8 i a r R.G.j S 4.n.N.y.r.{ _ {.T A 0.{.oXoX/...c 6.W.l m 3.v.B.B.3.n p |.| 6 8 5 5 5 % 8 uXC         ;.zX",
"jX$       . 8XS.$ 5 8 8 8 a a V &.R ,.e.t.l.k.1.~ ) ].@.|.{.l.y.3.j.OXT.6.W.z F e.b.N.M.>.h R.H.6 8 8 5 5 ; - $ -Xi.        ;.zX",
"jX$       * uX' ; 8 8 9 a a d s Z k.1.4.{ { ) / U X.9XOX0.5.A.e._ e.X.U.4XOXj Z 3.e.4.>.b U.R.r w 5 5 5 5 - = X E.).        ;.zX",
"jX$       N iXg 5 8 8 0 a d d s T C.k.h.C U Y c %.2X&X1.2X X;XXXx.:X X9.8.9X].) n ~ S b W.~.t e 8 5 5 5 5 < & X &.-X.       ;.zX",
"jX$       N tX8 5 8 8 a a d g g x X.z. ._ I U R.OXH./.6XkX+.5X5XL.8X:.S./.W.0.@X6.k v ].R.p i 9 8 8 5 5 ; 5 = O ! yX$       ;.zX",
"jX$       o.wX5 5 8 8 0 a d d g g g M C F.].[.R.T $.].5XdX#XzX`.+.7XoX6XOXW.n / _.R.].s.p f a 8 8 5 8 ; ; 5 = $ P rX#       ;.zX",
"jX$       a.wX= ; 8 8 0 a a a d g H J c 6.sX6X) m %.].z.C.w.hXzXkX0Xe.j.w.].T c 8.sX2XZ l g 0 e 8 8 8 5 5 5 < % K qX#       ;.zX",
"jX$       a.eX- 5 8 8 0 a a a f f J l H.@X) 6.@Xq.X.{.Z.V.( +XhXtXC.,.,.m._.T ~.[.T %.@X` t y a 8 8 8 6 5 5 - % L qX@       ;.zX",
"jX$       E wX8 5 8 a a a g g g x x J.OXU v M W ].3X].B.;X:XlXI.f.;XC.C.h.&X+XL.l J s ] 2X[ q a 8 8 8 5 5 5 = $ Q rX*       ;.zX",
"jX$       V iXa ; 8 8 a a g d g t R.{.I m T T R T J.sXY.Z.;XzXsX6X1XZ.c.{.7X..l x m I j ) @X] 6 8 8 8 ; 5 5 - o O.qXX       ;.zX",
"jX$       7 iXL = 8 0 a d g g p S.{.m ^ 3.4.4.>.T _ +X_.OXw./.jXfXd.d..X].~.z C S ,.>.>.{ { @XW w 8 8 5 5 5 = X F.*X        ;.zX",
"jX$       X uX=.$ 8 8 0 g g p %.OXI T 4.b.m.b.e.^ _ |.~ 6.@X/.w.w.OX'./ 6.~.z Z 3.r.m.n.e.b ` +Xc 8 5 5 5 5 = X {.).        ;.zX",
"jX$         *X`.O 8 0 8 a s v  XW v ) e.v.N.b.e.) W .X$.Z ~ OXsXeXd.n k 0.T.c ^ t.y.v.y.3.n , 9.R.1 5 - 5 ; % & qX .        ;.zX",
"jX$         7.eX5 5 8 0 g e G.F.e J ~ 4.l.n.k.{ / T ].6.q.|.|.*.q..X'.] H.s.n 1.n.N.r.r.{ l e t '.` , , = ; o H iX1         ;.zX",
"jX$         < fXP & 8 8 a c '.U d M C S { >.^ n T ] @X3X'.&.U Y J U s.].7XW.S F >.>.<.{ v i 8 q %.G.> - , - . S.-X          ;.zX",
"jX$           -X`.O 8 8 a v {.v t s p p j C ~ q.'.[.3XU.Z Y Q L J H J c .X|.|.W.6.S k h t 8 6 , ..L.> = ; = % wX7.          ;.zX",
"jX$           } gXa 5 8 a 7 D.'.$.| $.9.L.'.'.R.9.C 9.R.U Q Q L H M H v q.Z T 9.R.].E.s.%.| ] &..XW > = 5 o ! aX*           ;.zX",
"jX$           . tXP.O 8 9 e t $.T.~.R.G.9.` z i B v ..[.C P P H H B H T Z C V s t v | 9.L.R.R.F.U 6 ; = = O 6X^.            ;.zX",
"jX$             } lXd & 8 8 a e r y e r i f f a H J Y |.Y Y L L H B ] 5.R W x a a a e 7 q q 6 , 5 8 = - X $.fX2             ;.zX",
"jX$               -X&XO 8 0 0 0 d g g a a g a a H H x [.$.K P H H g 2.N.2.1.g d a a a 8 a a 8 7 8 5 ; % 5 dXu.              ;.zX",
"jX$               u lX=.O 8 8 8 8 8 i 0 a d a 8 H B f L.F.C L J g H A e.k.E B d a a a a a 9 5 5 6 5 = X .X>X                ;.zX",
"jX$                 *.zXL % 0 8 0 a a 8 a d a 8 d g f | [.z H g g x C Y f g g d a a a 8 a 9 5 5 8 5 . :.fX7                 ;.zX",
"jX$                   ).jXa = 7 8 8 0 8 8 a 8 a d g g v |.` f g g e D.D.w g d i a 8 8 8 8 5 5 5 5 X ' gX}                   ;.zX",
"jX$                   # =XsXd $ 8 8 8 8 8 0 0 a a g d s &.~.s x s v  XZ a a a 0 a 9 8 8 8 8 5 ; X ' lXi.                    a.zX",
"jX$                     @ -XhXH $ 8 8 8 0 0 8 0 a g d x p |.&.r w E.D.7 a 0 a a 9 0 8 8 8 8 = X #.lXK.                      ;.zX",
"jX$                       # }.lX+.$ ; 8 8 8 8 0 a a a f s R .XJ.~.R.r 8 a a a 0 9 0 9 8 8 & % L.gX .                        ;.zX",
"jX$                           f.lX`.8 $ 8 8 8 8 8 0 8 a a t C a.%.t e 8 8 8 8 8 8 8 9 ; O H =XpXD                           ;.zX",
"jX$                             E uXdX-.5 & 5 8 8 8 9 0 d a a 8 t 8 8 8 i 8 8 8 8 = % 9 T.fX$X<                             ;.zX",
"jX$                               # f.fXwX-.a & & 5 5 5 0 8 0 0 9 8 8 8 i 8 5 & % g P.aX,X}                                 ;.zX",
"jXO                                   7 Q.pXpX}.O.g ; - - - - ; ; - % $ = 5 B -.%XpX>Xo.X                                   ;.zX",
"jX2                                       * o.*XpXpX,X).K.*.O.' O.$.*.K.%XqXpX<X(.D .                                       d.zX",
"lXc                                             3  .f.$X1XyX1X<X<X<XyX*XXXp.V #                                             ^.zX",
"zX7.                                                    X # # @ @ # $                                                     . 6XzX",
"zX6X                                                                                                                      k lXzX",
"zXzX1.                                                                                                                  + =XzXzX",
"zXzXdXG                                                                                                               + XXzXzXzX",
"zXzXzXgXi.:                                                                                                       @ ( 6XzXzXzXzX",
"zXzXzXzXzXiXoXQ.a.:.;.;.;.;.;.;.;.;.;.;.;.;.;.;.;.;.;.;.;.;.;.;.;.;.;.;.;.;.;.;.;.;.;.;.;.;.;.;.;.;.;.;.;.;.;.F.}.tXzXzXzXzXzXzX",
"zXzXzXzXzXzXzXzXzXzXzXzXzXzXzXzXzXzXzXzXzXzXzXzXzXzXzXzXzXzXzXzXzXzXzXzXzXzXzXzXzXzXzXzXzXzXzXzXzXzXzXzXzXzXzXzXzXzXzXzXzXzXzXzX"
};
